<svg xmlns="http://www.w3.org/2000/svg" version="1.1" xmlns:xlink="http://www.w3.org/1999/xlink" xmlns:svgjs="http://svgjs.com/svgjs" width="1440" height="560" preserveAspectRatio="none" viewBox="0 0 1440 560"><g mask="url(&quot;#SvgjsMask1049&quot;)" fill="none"><rect width="1440" height="560" x="0" y="0" fill="rgba(255, 255, 255, 1)"></rect><path d="M 0,69 C 96,71.6 288,90 480,82 C 672,74 768,25.8 960,29 C 1152,32.2 1344,84.2 1440,98L1440 560L0 560z" fill="rgba(255, 255, 255, 1)"></path><path d="M 0,239 C 36,230.8 108,190.8 180,198 C 252,205.2 288,284.8 360,275 C 432,265.2 468,159.4 540,149 C 612,138.6 648,224.2 720,223 C 792,221.8 828,137 900,143 C 972,149 1008,253.6 1080,253 C 1152,252.4 1188,146.2 1260,140 C 1332,133.8 1404,205.6 1440,222L1440 560L0 560z" fill="rgba(246, 179, 179, 1)"></path><path d="M 0,319 C 28.8,331.2 86.4,378.2 144,380 C 201.6,381.8 230.4,320.6 288,328 C 345.6,335.4 374.4,420 432,417 C 489.6,414 518.4,322.2 576,313 C 633.6,303.8 662.4,376.8 720,371 C 777.6,365.2 806.4,275.2 864,284 C 921.6,292.8 950.4,414 1008,415 C 1065.6,416 1094.4,296.8 1152,289 C 1209.6,281.2 1238.4,371 1296,376 C 1353.6,381 1411.2,326.4 1440,314L1440 560L0 560z" fill="rgba(239, 0, 0, 1)"></path><path d="M 0,540 C 41.2,525.8 123.6,475.4 206,469 C 288.4,462.6 329.6,517.4 412,508 C 494.4,498.6 535.6,419 618,422 C 700.4,425 741.6,517.4 824,523 C 906.4,528.6 947.6,448.4 1030,450 C 1112.4,451.6 1154,532.4 1236,531 C 1318,529.6 1399.2,460.6 1440,443L1440 560L0 560z" fill="rgba(239, 0, 0, 1)"></path></g><defs><mask id="SvgjsMask1049"><rect width="1440" height="560" fill="#ffffff"></rect></mask></defs></svg>