<svg xmlns="http://www.w3.org/2000/svg" version="1.1" xmlns:xlink="http://www.w3.org/1999/xlink" xmlns:svgjs="http://svgjs.com/svgjs" width="1440" height="750" preserveAspectRatio="none" viewBox="0 0 1440 750"><g mask="url(&quot;#SvgjsMask1087&quot;)" fill="none"><path d="M 0,121 C 32,109.8 96,63.6 160,65 C 224,66.4 256,140.2 320,128 C 384,115.8 416,1.6 480,4 C 544,6.4 576,124.4 640,140 C 704,155.6 736,83.4 800,82 C 864,80.6 896,133 960,133 C 1024,133 1056,76.6 1120,82 C 1184,87.4 1216,173.8 1280,160 C 1344,146.2 1408,42.4 1440,13L1440 750L0 750z" fill="rgba(190, 198, 156, 0)"></path><path d="M 0,316 C 36,302 108,250.6 180,246 C 252,241.4 288,298.6 360,293 C 432,287.4 468,217.6 540,218 C 612,218.4 648,298 720,295 C 792,292 828,204.2 900,203 C 972,201.8 1008,287 1080,289 C 1152,291 1188,213.2 1260,213 C 1332,212.8 1404,273 1440,288L1440 750L0 750z" fill="rgba(255, 96, 96, 0.29)"></path><path d="M 0,507 C 41.2,497.4 123.6,457.8 206,459 C 288.4,460.2 329.6,526.6 412,513 C 494.4,499.4 535.6,382.2 618,391 C 700.4,399.8 741.6,550.2 824,557 C 906.4,563.8 947.6,432.8 1030,425 C 1112.4,417.2 1154,521.2 1236,518 C 1318,514.8 1399.2,430.8 1440,409L1440 750L0 750z" fill="rgba(184, 4, 4, 0.42)"></path><path d="M 0,729 C 48,698.6 144,580.8 240,577 C 336,573.2 384,707.2 480,710 C 576,712.8 624,590 720,591 C 816,592 864,703.2 960,715 C 1056,726.8 1104,657.6 1200,650 C 1296,642.4 1392,671.6 1440,677L1440 750L0 750z" fill="rgba(255, 50, 50, 0)"></path></g><defs><mask id="SvgjsMask1087"><rect width="1440" height="750" fill="#ffffff"></rect></mask></defs></svg>