<svg xmlns="http://www.w3.org/2000/svg" version="1.1" xmlns:xlink="http://www.w3.org/1999/xlink" xmlns:svgjs="http://svgjs.com/svgjs" width="1440" height="750" preserveAspectRatio="none" viewBox="0 0 1440 750"><g mask="url(&quot;#SvgjsMask1208&quot;)" fill="none"><path d="M 0,247 C 96,212.8 288,84.2 480,76 C 672,67.8 768,216.2 960,206 C 1152,195.8 1344,61.2 1440,25L1440 750L0 750z" fill="rgba(255, 162, 124, 0)"></path><path d="M 0,413 C 32,399.6 96,335.6 160,346 C 224,356.4 256,473.4 320,465 C 384,456.6 416,314.6 480,304 C 544,293.4 576,405.4 640,412 C 704,418.6 736,340.4 800,337 C 864,333.6 896,409.4 960,395 C 1024,380.6 1056,266.4 1120,265 C 1184,263.6 1216,370.2 1280,388 C 1344,405.8 1408,360.8 1440,354L1440 750L0 750z" fill="rgba(255, 47, 47, 0.3)"></path><path d="M 0,595 C 28.8,609.8 86.4,679.8 144,669 C 201.6,658.2 230.4,524.8 288,541 C 345.6,557.2 374.4,755.8 432,750 C 489.6,744.2 518.4,524.2 576,512 C 633.6,499.8 662.4,688.8 720,689 C 777.6,689.2 806.4,522.6 864,513 C 921.6,503.4 950.4,641.6 1008,641 C 1065.6,640.4 1094.4,509.8 1152,510 C 1209.6,510.2 1238.4,627.4 1296,642 C 1353.6,656.6 1411.2,594.8 1440,583L1440 750L0 750z" fill="rgba(237, 55, 55, 1)"></path></g><defs><mask id="SvgjsMask1208"><rect width="1440" height="750" fill="#ffffff"></rect></mask></defs></svg>