<svg xmlns="http://www.w3.org/2000/svg" version="1.1" xmlns:xlink="http://www.w3.org/1999/xlink" xmlns:svgjs="http://svgjs.com/svgjs" width="1440" height="750" preserveAspectRatio="none" viewBox="0 0 1440 750"><g mask="url(&quot;#SvgjsMask1289&quot;)" fill="none"><path d="M 0,185 C 41.2,160.8 123.6,64 206,64 C 288.4,64 329.6,182.6 412,185 C 494.4,187.4 535.6,86.2 618,76 C 700.4,65.8 741.6,134 824,134 C 906.4,134 947.6,82.6 1030,76 C 1112.4,69.4 1154,101.2 1236,101 C 1318,100.8 1399.2,80.2 1440,75L1440 750L0 750z" fill="rgba(190, 198, 156, 0)"></path><path d="M 0,302 C 57.6,282.8 172.8,195.8 288,206 C 403.2,216.2 460.8,345 576,353 C 691.2,361 748.8,248 864,246 C 979.2,244 1036.8,339 1152,343 C 1267.2,347 1382.4,281.4 1440,266L1440 750L0 750z" fill="rgba(255, 96, 96, 0.29)"></path><path d="M 0,375 C 41.2,396.4 123.6,465.4 206,482 C 288.4,498.6 329.6,445.8 412,458 C 494.4,470.2 535.6,550 618,543 C 700.4,536 741.6,426 824,423 C 906.4,420 947.6,533.2 1030,528 C 1112.4,522.8 1154,399.4 1236,397 C 1318,394.6 1399.2,492.2 1440,516L1440 750L0 750z" fill="rgba(255, 47, 47, 1)"></path><path d="M 0,602 C 28.8,631 86.4,754.6 144,747 C 201.6,739.4 230.4,572.6 288,564 C 345.6,555.4 374.4,696.6 432,704 C 489.6,711.4 518.4,609 576,601 C 633.6,593 662.4,654 720,664 C 777.6,674 806.4,649.6 864,651 C 921.6,652.4 950.4,682.6 1008,671 C 1065.6,659.4 1094.4,587.8 1152,593 C 1209.6,598.2 1238.4,699.2 1296,697 C 1353.6,694.8 1411.2,605 1440,582L1440 750L0 750z" fill="rgba(253, 47, 47, 0.98)"></path></g><defs><mask id="SvgjsMask1289"><rect width="1440" height="750" fill="#ffffff"></rect></mask></defs></svg>