<svg xmlns="http://www.w3.org/2000/svg" version="1.1" xmlns:xlink="http://www.w3.org/1999/xlink" xmlns:svgjs="http://svgjs.com/svgjs" width="1440" height="750" preserveAspectRatio="none" viewBox="0 0 1440 750"><g mask="url(&quot;#SvgjsMask1007&quot;)" fill="none"><rect width="1440" height="750" x="0" y="0" fill="rgba(0, 0, 0, 1)"></rect><path d="M 0,99 C 32,96.4 96,79.2 160,86 C 224,92.8 256,132.6 320,133 C 384,133.4 416,92.8 480,88 C 544,83.2 576,125.8 640,109 C 704,92.2 736,4.8 800,4 C 864,3.2 896,96.4 960,105 C 1024,113.6 1056,32 1120,47 C 1184,62 1216,172.4 1280,180 C 1344,187.6 1408,104 1440,85L1440 750L0 750z" fill="rgba(190, 198, 156, 0)"></path><path d="M 0,374 C 36,353.2 108,270.2 180,270 C 252,269.8 288,384.2 360,373 C 432,361.8 468,218 540,214 C 612,210 648,346.4 720,353 C 792,359.6 828,243 900,247 C 972,251 1008,383 1080,373 C 1152,363 1188,202.8 1260,197 C 1332,191.2 1404,314.6 1440,344L1440 750L0 750z" fill="rgba(99, 99, 99, 1)"></path><path d="M 0,531 C 41.2,508.6 123.6,425 206,419 C 288.4,413 329.6,499 412,501 C 494.4,503 535.6,433.8 618,429 C 700.4,424.2 741.6,474.6 824,477 C 906.4,479.4 947.6,424 1030,441 C 1112.4,458 1154,570 1236,562 C 1318,554 1399.2,433.2 1440,401L1440 750L0 750z" fill="rgba(0, 0, 0, 1)"></path><path d="M 0,648 C 26.2,659.2 78.6,707.6 131,704 C 183.4,700.4 209.6,622.4 262,630 C 314.4,637.6 340.6,739.8 393,742 C 445.4,744.2 471.6,657.4 524,641 C 576.4,624.6 602.6,670.6 655,660 C 707.4,649.4 733.6,570 786,588 C 838.4,606 864.6,747.2 917,750 C 969.4,752.8 995.6,609 1048,602 C 1100.4,595 1126.6,714.2 1179,715 C 1231.4,715.8 1257.8,611.6 1310,606 C 1362.2,600.4 1414,670.8 1440,687L1440 750L0 750z" fill="rgba(255, 50, 50, 0)"></path></g><defs><mask id="SvgjsMask1007"><rect width="1440" height="750" fill="#ffffff"></rect></mask></defs></svg>